<svg xmlns:rdf="http://www.w3.org/1999/02/22-rdf-syntax-ns#" xmlns="http://www.w3.org/2000/svg" height="196.14mm" width="193.73mm" version="1.1" xmlns:cc="http://creativecommons.org/ns#" xmlns:dc="http://purl.org/dc/elements/1.1/" viewBox="0 0 686.42859 694.99998">
 <path style="fill:#f3f3f3" d="m285.56 189.98c-22.401 0-40.366 6.4309-53.896 19.295-13.308 12.864-19.963 30.164-19.963 51.9v95.814c0 11.784 1.973 22.255 5.8841 31.431 12.887-17.907 34.477-29.681 56.665-31.594v-98.312c0-4.6576.99647-8.3161 2.9926-10.978 4.7889-5.1143 12.704-5.0657 16.634 0 1.9961 2.6615 2.9926 6.32 2.9926 10.978v98.254c22.316 2.1786 43.568 13.711 56.52 31.76 4.0076-9.2018 6.0285-19.71 6.0285-31.54v-95.814c0-21.736-6.7655-39.035-20.295-51.9-13.31-12.87-31.16-19.3-53.56-19.3zm-256.98 2.66c-1.5525 0-2.7733.44487-3.6604 1.332-.88717.88718-1.3284 2.1078-1.3284 3.6605v162.75c12.935-1.5651 54.855-2.9391 62.545.23454v-75.487c0-1.109.22064-1.6642.66422-1.6642.66538-.22161 1.2206.11274 1.6642 1.0001l21.955 37.926h.33571l3.3247-5.9888 18.963-31.937c.4436-.88718.88848-1.2217 1.332-1.0001.66539.2218.99634.77701.99634 1.6642v75.811c11.099-2.4417 56.265-3.1343 62.545-.43322v-162.87c0-1.5527-.44128-2.7733-1.3284-3.6605-.88716-.88716-2.1079-1.332-3.6604-1.332h-51.9c-2.6615 0-4.6581 1.2208-5.9888 3.6605l-22.623 42.586c-.22179.88717-.66307 1.3285-1.3284 1.3285-.4436-.22179-.88849-.66316-1.3321-1.3285l-23.286-42.59c-1.109-2.4397-3.1055-3.6605-5.9888-3.6605zm351.25 0c-1.5526 0-2.7733.44487-3.6604 1.332-.88715.88718-1.3321 2.1078-1.3321 3.6605v162.61c19.922-2.0895 41.48-.77664 62.549-.91324v-21.302c0-1.3307.44127-1.9963 1.3284-1.9963.44357 0 .88846.55523 1.332 1.6642l5.2271 21.501c2.5473-.0702 5.0928-.14232 7.6133-.28519 24.396-.44266 48.913 11.478 62.92 31.587l-18.54-64.78c-.22179-1.109.11275-1.995.99995-2.6604 7.9845-5.9884 14.085-13.75 18.299-23.287 4.2141-9.7588 6.3209-20.738 6.3209-32.937 0-14.416-2.8827-27.168-8.6493-38.258-5.7666-11.311-13.863-20.073-24.287-26.284-10.202-6.432-21.958-9.6492-35.265-9.6492zm163.1 0c-1.5526 0-2.7733.44487-3.6604 1.332-.88716.88718-1.332 2.1078-1.332 3.6605v162.16c.37574-.19278.74574-.39441 1.1552-.55597 20.463.18558 40.93.0813 61.394 0v-21.547c0-1.3308.66552-1.9963 1.9963-1.9963h32.933c1.5525 0 2.7733-.44117 3.6604-1.3283.88717-.88735 1.332-2.108 1.332-3.6605v-43.582c0-1.5526-.44488-2.7734-1.332-3.6605-.88716-.88698-2.1079-1.332-3.6604-1.332h-32.933c-1.3307 0-1.9963-.66538-1.9963-1.9961v-31.937c0-1.3308.66552-1.9963 1.9963-1.9963h63.541c1.5526 0 2.7733-.44137 3.6604-1.3285.88716-.88716 1.3284-2.1078 1.3284-3.6603v-43.582c0-1.5527-.44128-2.7733-1.3284-3.6605-.88718-.88716-2.1079-1.332-3.6604-1.332zm-103.55 53.564h4.3283c5.1012 0 9.0907 1.8863 11.974 5.6566 3.1051 3.5489 4.6604 8.759 4.6604 15.634 0 6.654-1.5553 11.868-4.6604 15.638-3.1051 3.5487-7.0946 5.321-11.974 5.321h-4.3283c-1.3308 0-1.9927-.66203-1.9927-1.9928v-38.261c0-1.3308.66191-1.9963 1.9927-1.9963z"></path>
 <path style="fill:#f3f3f3" d="m671.01 423.16q0 2.3288-1.3308 3.6597-1.3308 1.3307-3.6596 1.3307h-63.543q-1.9961 0-1.9961 1.9961v31.938q0 1.9961 1.9961 1.9961h32.936q2.3288 0 3.6596 1.3307t1.3308 3.6597v43.582q0 2.3288-1.3308 3.6597-1.3308 1.3307-3.6596 1.3307h-32.936q-1.9961 0-1.9961 1.9961v32.271q0 1.9961 1.9961 1.9961h63.543q2.3288 0 3.6596 1.3307 1.3308 1.3309 1.3308 3.6597v43.582q0 2.3288-1.3308 3.6596-1.3308 1.3307-3.6596 1.3307h-123.09q-2.3288 0-3.6596-1.3307-1.3307-1.3309-1.3307-3.6596v-222.9q0-2.329 1.3307-3.6597 1.3308-1.3307 3.6596-1.3307h123.09q2.3288 0 3.6596 1.3307t1.3308 3.6597v43.582zm-205.35 184.31q-4.3249 0-5.323-4.325l-20.294-83.505q-.66537-1.6634-1.3308-1.6634-1.3308 0-1.3308 1.9961v82.507q0 2.3288-1.3307 3.6596-1.3308 1.3307-3.6596 1.3307h-52.565q-2.3288 0-3.6596-1.3307-1.3307-1.3309-1.3307-3.6596v-222.9q0-2.329 1.3307-3.6597 1.3308-1.3307 3.6596-1.3307h74.855q19.961 0 35.265 9.6479 15.636 9.3152 24.286 26.282 8.6499 16.634 8.6499 38.259 0 18.298-6.3211 32.936-6.3211 14.306-18.298 23.288-1.3307.99805-.99805 2.6616l26.948 94.151q.33269.66546.33269 1.6635 0 3.9923-4.6576 3.9923h-54.228zm-26.28-179.32q-1.9961 0-1.9961 1.9961v38.259q0 1.9961 1.9961 1.9961h4.3249q7.3191 0 11.977-5.3231 4.6576-5.6556 4.6576-15.636 0-10.313-4.6576-15.636-4.3249-5.6556-11.977-5.6556h-4.3249zm-153.82 181.98q-33.602 0-53.895-19.296-19.961-19.296-19.961-51.899v-95.814q0-32.603 19.961-51.899 20.294-19.296 53.895-19.296 33.602 0 53.563 19.296 20.294 19.296 20.294 51.899v95.814q0 32.603-20.294 51.899-19.961 19.296-53.563 19.296zm0-53.563q5.323 0 8.3172-3.9924 2.9942-3.9922 2.9942-10.979v-101.14q0-6.9865-2.9942-10.979-2.9942-3.9924-8.3172-3.9924t-8.3172 3.9924q-2.9942 3.9922-2.9942 10.979v101.14q0 6.9865 2.9942 10.979 2.9942 3.9924 8.3172 3.9924zm-150.51-178.32q1.9961-3.6597 5.9884-3.6597h51.899q2.3288 0 3.6596 1.3307t1.3308 3.6597v222.9q0 2.3288-1.3308 3.6596-1.3308 1.3307-3.6596 1.3307h-52.565q-2.3288 0-3.6596-1.3307-1.3307-1.3309-1.3307-3.6596v-135.4q0-1.3309-.99805-1.6636-.66539-.33268-1.3308.99804l-18.963 31.938-3.3269 5.9884h-.3327l-21.957-37.926q-.66538-1.3307-1.6634-.99804-.66538 0-.66538 1.6636v135.4q0 2.3288-1.3307 3.6596-1.3308 1.3307-3.6596 1.3307h-52.565q-2.3288 0-3.6596-1.3307-1.3308-1.3309-1.3308-3.6596v-222.9q0-2.329 1.3308-3.6597t3.6596-1.3307h51.899q4.325 0 5.9884 3.6597l23.288 42.584q.66537.99804 1.3308 1.3307.99805 0 1.3308-1.3307l22.623-42.584z"></path>
 <path d="m285.56 6.6649c-22.401 0-40.366 6.4309-53.896 19.295-13.308 12.864-19.963 30.164-19.963 51.899v95.814c0 11.784 1.973 22.255 5.8841 31.431 12.887-17.907 34.477-29.681 56.665-31.594v-98.312c0-4.6577.99647-8.3161 2.9926-10.978 1.9961-2.6614 4.7685-3.9925 8.3172-3.9925s6.3211 1.3311 8.3172 3.9925c1.9961 2.6616 2.9926 6.32 2.9926 10.978v98.254c22.316 2.1785 43.568 13.711 56.52 31.76 4.0076-9.2018 6.0286-19.71 6.0286-31.54v-95.814c0-21.736-6.7655-39.035-20.295-51.899-13.31-12.861-31.16-19.292-53.56-19.292zm-256.98 2.6606c-1.5525 0-2.7733.44487-3.6604 1.332-.88717.88715-1.3284 2.1077-1.3284 3.6604v162.75c12.935-1.5651 54.855-2.939 62.545.23455v-75.486c0-1.1089.22064-1.6642.66422-1.6642.66538-.22160 1.2206.11275 1.6642 1.0001l21.955 37.926h.33571l3.3247-5.9888 18.963-31.937c.4436-.88715.88848-1.2217 1.332-1.0001.66539.22179.99634.77699.99634 1.6642v75.811c11.099-2.4417 56.265-3.1342 62.545-.43323v-162.87c0-1.5527-.44128-2.7733-1.3284-3.6604-.88716-.88715-2.1079-1.332-3.6604-1.332h-51.9c-2.6615 0-4.6581 1.2208-5.9888 3.6604l-22.623 42.586c-.22179.88715-.66305 1.3287-1.3284 1.3287-.4436-.22179-.88849-.66333-1.3321-1.3287l-23.286-42.588c-1.109-2.44-3.106-3.6605-5.989-3.6605zm351.25 0c-1.5526 0-2.7733.44487-3.6604 1.332-.88715.88715-1.332 2.1077-1.332 3.6604v162.61c19.922-2.0894 41.48-.77662 62.549-.9132v-21.302c0-1.3309.44125-1.9964 1.3284-1.9964.44359 0 .88846.5552 1.332 1.6643l5.2271 21.5c2.5473-.0702 5.0928-.14231 7.6133-.28518 24.396-.44265 48.913 11.478 62.92 31.587l-18.54-64.78c-.22177-1.1089.11275-1.995.99995-2.6603 7.9845-5.9884 14.085-13.75 18.299-23.287 4.214-9.7588 6.3209-20.738 6.3209-32.937 0-14.416-2.8827-27.168-8.6493-38.258-5.78-11.321-13.87-20.083-24.3-26.293-10.2-6.432-21.96-9.6495-35.26-9.6495zm163.1 0c-1.5526 0-2.7733.44487-3.6604 1.332-.88716.88715-1.332 2.1077-1.332 3.6604v162.16c.37576-.19278.74574-.39442 1.1552-.55595 20.463.18556 40.93.0813 61.394 0v-21.547c0-1.3309.66554-1.9965 1.9963-1.9965h32.933c1.5525 0 2.7733-.44117 3.6604-1.3283.88717-.88733 1.332-2.1079 1.332-3.6604v-43.582c0-1.5525-.44488-2.7732-1.332-3.6604-.88716-.88697-2.1079-1.332-3.6604-1.332h-32.933c-1.3307 0-1.9963-.66536-1.9963-1.9963v-31.937c0-1.3309.66554-1.9965 1.9963-1.9965h63.541c1.5526 0 2.7733-.44136 3.6604-1.3285.88716-.88715 1.3285-2.1077 1.3285-3.6602v-43.582c0-1.5527-.4413-2.7733-1.3285-3.6604-.88716-.88715-2.1079-1.332-3.6604-1.332zm-103.55 53.564h4.3283c5.1012 0 9.0908 1.8865 11.974 5.6567 3.1051 3.5488 4.6604 8.7589 4.6604 15.635 0 6.654-1.5553 11.868-4.6604 15.638-3.1051 3.5486-7.0946 5.3209-11.974 5.3209h-4.3283c-1.3308 0-1.9926-.66203-1.9926-1.9928v-38.261c0-1.3309.66189-1.9965 1.9926-1.9965z" style="fill:#f3f3f3"></path>
 <text style="letter-spacing:0px;font-family:sans-serif;font-size:180px;line-height:125%;word-spacing:0px;fill:#f3f3f3" xml:space="preserve" y="707.49426" x="20.807764"><tspan x="20.807764" style="letter-spacing:3.0701px;font-family:'Barlow Condensed ExtraBold';font-stretch:condensed;font-weight:800" y="707.49426">++++++++</tspan></text>
</svg>