<svg xmlns:rdf="http://www.w3.org/1999/02/22-rdf-syntax-ns#" xmlns="http://www.w3.org/2000/svg" height="197.44mm" width="162.77mm" version="1.1" xmlns:cc="http://creativecommons.org/ns#" xmlns:dc="http://purl.org/dc/elements/1.1/" viewBox="0 0 576.75709 699.60542">
 <g transform="translate(222.66 -639.7)">
  <path style="fill:#f3f3f3" d="m-222.66 639.7v699.61h491.52v-699.61h-491.52zm56.084 79.359h60.049c.58355 0 1.0503.2343 1.4004.7012.46685.3501.69922.8169.69922 1.4004v16.98c0 .5835-.23237 1.1093-.69922 1.5761-.35012.3502-.81684.5254-1.4004.5254h-36.59c-.58356 0-.875.2915-.875.875v27.66c0 .5836.29144.875.875.875h21.008c.58355 0 1.0503.2343 1.4004.7012.46685.35.70117.8167.70117 1.4003v16.98c0 .5836-.23432 1.1094-.70117 1.5762-.35013.3501-.81684.5254-1.4004.5254h-21.008c-.58356 0-.875.2914-.875.875v27.836c0 .5835.29144.875.875.875h36.59c.58355 0 1.0503.2343 1.4004.7012.46685.3501.69922.8168.69922 1.4004v16.98c0 .5836-.23237 1.1094-.69922 1.5762-.35012.3501-.81684.5254-1.4004.5254h-60.049c-.58355 0-1.1074-.1753-1.5742-.5254-.35013-.4668-.52539-.9926-.52539-1.5762v-118.34c0-.5835.17526-1.0503.52539-1.4004.46684-.4669.99067-.7012 1.5742-.7012zm72.908 0h22.582c1.4005 0 2.1606.642 2.2774 1.9258l12.078 77.029c.11671.4669.29197.7012.52539.7012s.40868-.2343.52539-.7012l11.729-77.029c.11672-1.2838.87682-1.9258 2.2773-1.9258h21.883c1.5172 0 2.1001.7601 1.75 2.2774l-25.209 118.34c-.23341 1.2838-.99157 1.9258-2.2754 1.9258h-22.584c-1.2838 0-2.042-.642-2.2754-1.9258l-25.035-118.34-.17383-.7012c0-1.0504.64196-1.5762 1.9258-1.5762zm89.508 0h60.047c.58355 0 1.0503.2343 1.4004.7012.46684.3501.69922.8169.69922 1.4004v16.98c0 .5835-.23238 1.1093-.69922 1.5761-.35013.3502-.81684.5254-1.4004.5254h-36.59c-.58355 0-.875.2915-.875.875v27.66c0 .5836.29145.875.875.875h21.008c.58356 0 1.0522.2343 1.4023.7012.46684.35.69921.8167.69922 1.4003v16.98c0 .5836-.23238 1.1094-.69922 1.5762-.35013.3501-.81878.5254-1.4023.5254h-21.008c-.58355 0-.875.2914-.875.875v27.836c0 .5835.29145.875.875.875h36.59c.58355 0 1.0503.2343 1.4004.7012.46684.3501.69922.8168.69922 1.4004v16.98c0 .5836-.23238 1.1094-.69922 1.5762-.35013.3501-.81684.5254-1.4004.5254h-60.047c-.58355 0-1.1093-.1753-1.5762-.5254-.35014-.4668-.52539-.9926-.52539-1.5762v-118.34c0-.5835.17525-1.0503.52539-1.4004.46684-.4669.99262-.7012 1.5762-.7012zm76.932 0h35.363c6.4191 0 12.138 1.5754 17.156 4.7266 5.0186 3.0345 8.8704 7.353 11.555 12.955 2.8011 5.6021 4.2012 12.022 4.2012 19.258 0 6.8858-1.3411 12.955-4.0254 18.207-2.5676 5.2519-6.187 9.3361-10.856 12.254-.2334.1167-.4067.2919-.5234.5254-.1167.1167-.1167.2919 0 .5254l16.105 51.644.1758.6993c0 1.1668-.642 1.7519-1.9258 1.7519h-21.008c-1.2839 0-2.101-.5851-2.4511-1.7519l-13.48-48.316c-.2334-.4668-.5248-.7011-.875-.7011h-5.9531c-.5835 0-.875.2914-.875.875v47.793c0 .5836-.2343 1.1094-.7012 1.5762-.3501.3501-.8168.5254-1.4004.5254h-20.482c-.58355 0-1.1074-.1753-1.5742-.5254-.35013-.4668-.52539-.9926-.52539-1.5762v-118.34c0-.5835.17526-1.0503.52539-1.4004.46684-.4669.99068-.7012 1.5742-.7012zm74.283 0h21.533c1.2839 0 2.1011.5848 2.4512 1.752l10.854 41.84c.1167.3501.292.5254.5254.5254s.4086-.1753.5253-.5254l10.854-41.84c.3501-1.1672 1.1673-1.752 2.4511-1.752h21.533c.7002 0 1.2261.2343 1.5762.7012.3502.3501.4072.9331.1738 1.75l-24.684 71.252-.1757 1.0507v45.518c0 .5835-.2325 1.1074-.6993 1.5742-.3501.3502-.8167.5254-1.4003.5254h-20.482c-.5836 0-1.1093-.1752-1.5761-.5254-.3501-.4668-.5254-.9907-.5254-1.5742v-45.518l-.1758-1.0507-24.508-71.252c-.1168-.2334-.1758-.5249-.1758-.875 0-1.0504.6419-1.5762 1.9258-1.5762zm-50.824 21.184c-.5835 0-.875.2915-.875.875v29.936c0 .5835.2915.8769.875.8769h7.8789c3.618 0 6.5343-1.4021 8.7519-4.2031 2.3342-2.9178 3.502-6.7676 3.502-11.553 0-4.9018-1.1678-8.7537-3.502-11.555-2.2176-2.9178-5.1339-4.377-8.7519-4.377h-7.8789zm-41.533 127.74c9.0952 0 16.362 2.6693 21.799 8.0078 5.5362 5.3384 8.3047 12.456 8.3047 21.354v47.453c0 8.8975-2.7685 16.017-8.3047 21.355-5.4373 5.3385-12.704 8.0078-21.799 8.0078-9.0952 0-16.361-2.6693-21.799-8.0078-5.4373-5.3385-8.1562-12.458-8.1562-21.355v-47.453c0-8.8975 2.7189-16.015 8.1562-21.354 5.4373-5.3385 12.704-8.0078 21.799-8.0078zm-222.77 1.1875h17.35c.4943 0 .88897.1963 1.1856.5918.39544.2965.59375.6931.59375 1.1875v83.34c0 .4943.24788.7402.74219.7402h31.141c.49431 0 .88897.1983 1.1856.5938.39544.2966.59375.6912.59375 1.1855v14.385c0 .4943-.19831.93849-.59375 1.334-.29658.2966-.69124.44531-1.1856.44531h-51.012c-.4943 0-.9405-.14871-1.3359-.44531-.29659-.3955-.44335-.83969-.44335-1.334v-100.24c0-.4944.14676-.891.44335-1.1875.39544-.3955.84164-.5918 1.3359-.5918zm83.533 0h20.02c1.0875 0 1.73.5433 1.9277 1.6308l21.65 100.24.14844.59375c0 .8898-.54339 1.334-1.6309 1.334h-17.795c-1.1863 0-1.8288-.54336-1.9277-1.6309l-2.373-14.236c0-.4943-.29747-.7402-.89063-.7402h-18.832c-.59316 0-.89062.2459-.89063.7402l-2.3711 14.236c-.0989 1.0875-.7414 1.6309-1.9277 1.6309h-17.352c-1.2852 0-1.779-.64263-1.4824-1.9277l21.799-100.24c.19772-1.0875.84025-1.6308 1.9277-1.6308zm42.527 0h18.24c1.0875 0 1.7796.4938 2.0762 1.4824l9.1934 35.441c.0989.2966.24759.4453.44532.4453.19772 0 .34641-.1487.44531-.4453l9.1934-35.441c.29659-.9886.9887-1.4824 2.0762-1.4824h18.24c.59316 0 1.0374.1963 1.334.5918.29658.2965.34616.7923.14844 1.4843l-20.91 60.354-.14648.8907v38.555c0 .4943-.1983.93858-.59375 1.334-.29658.2966-.6932.44531-1.1875.44531h-17.35c-.49431 0-.93855-.14871-1.334-.44531-.29658-.3954-.44531-.83968-.44531-1.334v-38.555l-.14844-.8907-20.76-60.354c-.0988-.1977-.14844-.4456-.14844-.7422 0-.8897.5434-1.3339 1.6309-1.3339zm139.66 0h17.35c.4944 0 .891.1963 1.1875.5918.3955.2965.5937.6931.5937 1.1875v74.59c0 3.1635.7893 5.7337 2.3711 7.7109 1.5817 1.9773 3.658 2.9668 6.2286 2.9668 2.5701 0 4.597-.9895 6.08-2.9668 1.5818-1.9772 2.3731-4.5474 2.3731-7.7109v-74.59c0-.4944.1488-.891.4453-1.1875.3955-.3955.8397-.5918 1.334-.5918h17.35c.4943 0 .8909.1963 1.1875.5918.3955.2965.5918.6931.5918 1.1875v72.514c0 9.2929-2.719 16.758-8.1563 22.393-5.3385 5.5362-12.406 8.3047-21.205 8.3047-8.8977 0-16.065-2.7685-21.502-8.3047-5.3384-5.635-8.0078-13.1-8.0078-22.393v-72.514c0-.4944.1487-.891.4453-1.1875.3954-.3955.8397-.5918 1.334-.5918zm68.439 0h58.723c.4944 0 .8889.1963 1.1855.5918.3954.2965.5938.6931.5938 1.1875v14.385c0 .4943-.1984.9385-.5938 1.334-.2966.2966-.6911.4453-1.1855.4453h-18.537c-.4943 0-.7403.2458-.7403.7403v83.34c0 .4943-.1983.93849-.5937 1.334-.2966.2966-.6913.44531-1.1855.44531h-17.352c-.4943 0-.9386-.14871-1.334-.44531-.2966-.3955-.4453-.83969-.4453-1.334v-83.34c0-.4944-.2459-.7403-.7402-.7403h-17.795c-.4944 0-.9404-.1487-1.3359-.4453-.2965-.3955-.4434-.8397-.4434-1.334v-14.385c0-.4944.1469-.891.4434-1.1875.3955-.3955.8415-.5918 1.3359-.5918zm-111.39 16.756c-2.7681 0-4.9932.9896-6.6738 2.9668-1.5818 1.8783-2.3711 4.399-2.3711 7.5625v49.232c0 3.1636.78934 5.7338 2.3711 7.711 1.6806 1.8783 3.9057 2.8183 6.6738 2.8183s4.9932-.94 6.6738-2.8183c1.6806-1.9772 2.5195-4.5474 2.5195-7.711v-49.232c0-3.1635-.83891-5.6842-2.5195-7.5625-1.6806-1.9772-3.9057-2.9668-6.6738-2.9668zm-129.75 12.606c-.19772 0-.34446.1487-.44336.4453l-6.6738 40.482c0 .4943.1983.7422.59375.7422h13.346c.49435 0 .69264-.2479.59374-.7422l-6.9707-40.482c-.0989-.2966-.24758-.4453-.44531-.4453zm64.338 345.46h60v10h-60v-10zm-100 20h260v10h-260v-10z"></path>
  <path style="stroke:#f3f3f3;stroke-width:10.188;fill:none" d="m284.59 659v664.29"></path>
  <path style="stroke:#f3f3f3;stroke-width:10.188;fill:none" d="m304.59 659v664.29"></path>
  <path style="stroke:#f3f3f3;stroke-width:10.188;fill:none" d="m324.59 659v664.29"></path>
  <path style="stroke:#f3f3f3;stroke-linecap:square;stroke-width:15;fill:none" d="m346.59 649v680"></path>
 </g>
</svg>