<svg xmlns:rdf="http://www.w3.org/1999/02/22-rdf-syntax-ns#" xmlns="http://www.w3.org/2000/svg" height="188.48mm" width="275.65mm" version="1.1" xmlns:cc="http://creativecommons.org/ns#" xmlns:dc="http://purl.org/dc/elements/1.1/" viewBox="0 0 976.71041 667.84958">
 <g transform="translate(-294.5 -652.72)">
  <path style="color-rendering:auto;text-decoration-color:#000000;color:#000000;shape-rendering:auto;solid-color:#000000;text-decoration-line:none;fill:#f3f3f3;fill-rule:evenodd;mix-blend-mode:normal;block-progression:tb;text-indent:0;image-rendering:auto;white-space:normal;text-decoration-style:solid;isolation:auto;text-transform:none" d="m954.07 652.72-524.39 141.73 3.3691 9.2148 50.004 136.77c5.7834-1.6548 11.557-3.3293 17.318-5.0313l-47.053-128.71 422.78-114.26 31.227 161.27c4.3354 1.0573 8.6423 2.2282 12.904 3.543l-32.52-167.95 10.326-2.791 34.363 174.9c4.4922 1.6794 8.9342 3.4909 13.303 5.4648l-36.055-183.51 10.877-2.9395 36.309 191.89c4.6623 2.4448 9.2341 5.0619 13.699 7.8574l-38.391-202.89 7.793-2.1054 39.08 210.6c7.5515 5.2738 14.751 11.081 21.531 17.408l-46.43-250.45zm-411.66 403.78c-5.1898 1.2295-10.368 2.5065-15.541 3.8047l94.121 257.45 232.84 2.8398 201.52-122.05-15.283-82.355c-.1166.3027-.2258.6079-.3438.9101-3.3788 9.5116-7.6887 18.512-12.783 26.973l8.4473 45.525-5.6641 3.4297-7.791-41.18c-3.0467 4.4358-6.3152 8.7071-9.7871 12.807l6.6231 35.008-6.8711 4.1621-6.2696-31.916c-3.2838 3.4454-6.717 6.7503-10.281 9.918l5.623 28.617-11.061 6.6973-5.1523-26.606c-3.4874 2.6533-7.0739 5.1847-10.748 7.5918l4.9648 25.637-130.07 78.775-215.28-2.627-87.314-238.83c-1.3148-1.5236-2.6197-3.0503-3.9024-4.5801z"></path>
  <path style="fill:#f3f3f3" d="m829.92 1209.7c-11.817-2.3358-33.641-9.2963-36.689-11.702-2.4345-1.9213-12.561-30.385-11.27-31.676.42856-.4285 29.86-8.7207 65.402-18.427l64.623-17.648 2.4556-9.4486c1.3506-5.1966 7.9501-30.631 14.666-56.52l12.21-47.071-42.709-41.464-42.709-41.464-57.939 17.562c-31.866 9.659-59.176 17.653-60.688 17.765-1.7325.12812-4.6458-4.8844-7.8773-13.553l-5.1281-13.757 5.3151-9.1959c16.875-29.196 51.717-54.339 87.465-63.116 17.564-4.3129 55.675-4.2118 75.992.2012 39.55 8.5903 60.446 18.499 88.61 42.017 12.362 10.322 29.264 29.642 31.314 35.792.4815 1.4444 31.202-5.5575 91.484-20.852 57.01-14.464 91.206-22.302 91.962-21.079 2.3966 3.8779 23.19 78.287 22.164 79.313-.5796.57944-41.327 12.45-90.551 26.379l-89.497 25.325-3.1634 20.876c-12.339 81.434-52.132 127.83-127.02 148.09-17.58 4.7568-62.295 6.8388-78.421 3.6514zm-170.3-92.447c-14.898-3.39-33.648-11.938-48.893-22.29-15.569-10.573-40.935-34.943-51.565-49.54-6.5466-8.9899-9.1447-11.205-12.229-10.426-2.1538.5443-43.079 11.554-90.945 24.465-47.866 12.912-87.324 23.261-87.684 23-.6462-.4691-21.309-79.13-21.33-81.201-.005-.5857 40.443-13.045 89.887-27.687l89.898-26.622v-9.7293c0-21.48 16.655-67.588 31.278-86.592 22.182-28.827 49.569-51.783 77.884-65.283 22.725-10.835 37.154-14.172 61.07-14.125 23.503.046 40.214 3.6128 60.204 12.849l14.035 6.4845 2.2512 11.205c1.2382 6.1626 2.6892 13.087 3.2245 15.387.82221 3.533-.16757 4.484-6.3763 6.1259-4.0423 1.069-31.902 8.0683-61.911 15.554l-54.562 13.611-15.038 57.459-15.038 57.459 41.078 41.078 41.078 41.078 65.66-18.335c36.113-10.084 65.813-18.12 66.001-17.857.18744.263 1.7611 7.7189 3.4968 16.569l3.1559 16.09-5.1949 6.862c-21.03 27.778-57.841 51.022-97.736 61.712-19.009 5.0938-64.555 6.5966-81.699 2.6956zm-346.03-28.377c-9.2405-32.302-19.784-73.245-19.051-73.978 1.8444-1.8444 26.672-7.3519 27.831-6.1739.67794.6892 4.7032 13.303 8.945 28.031s9.4817 32.747 11.644 40.042c2.1624 7.2951 3.5942 13.601 3.1818 14.014-.57302.5729-27.168 7.9141-29.254 8.0752-.2336.019-1.7174-4.486-3.2974-10.009zm927.71-109.96c-2.1126-6.7896-20.256-78.662-20.256-80.242 0-1.7278 19.99-8.2214 25.309-8.2214 1.7178 0 3.567 1.5062 4.1086 3.3473 3.9912 13.565 20.195 72.9 20.673 75.701.4809 2.8191-2.1793 4.387-13.749 8.1034-7.8899 2.5343-14.503 4.6194-14.695 4.6334-.192.0192-.8181-1.4806-1.3911-3.3217z"></path>
 </g>
</svg>