<svg xmlns:rdf="http://www.w3.org/1999/02/22-rdf-syntax-ns#" xmlns="http://www.w3.org/2000/svg" height="196.14mm" width="193.73mm" version="1.1" xmlns:cc="http://creativecommons.org/ns#" xmlns:dc="http://purl.org/dc/elements/1.1/" viewBox="0 0 686.42859 694.99998">
 <g transform="translate(960.36 186.57)">
  <rect style="stroke:#f3f3f3;stroke-linecap:square;stroke-width:14.496;fill:none" height="680.5" width="671.93" y="-179.32" x="-953.11"></rect>
  <path style="stroke:#f3f3f3;stroke-linecap:square;stroke-width:9.6592;fill:#f3f3f3" d="m-953.03-179.24v80.342h668.91v-80.342h-668.91zm39.688 20.176a20 20 0 0 1 5.3418 .5937 20 20 0 0 1 14.547 24.234l-.023.1a20 20 0 0 1 -24.291 14.455 20 20 0 0 1 -14.486 -24.272 20 20 0 0 1 18.912 -15.111zm40 0a20 20 0 0 1 5.3418 .5937 20 20 0 0 1 14.547 24.234l-.023.1a20 20 0 0 1 -24.291 14.455 20 20 0 0 1 -14.486 -24.272 20 20 0 0 1 18.912 -15.111zm40 0a20 20 0 0 1 5.3418 .5937 20 20 0 0 1 14.547 24.234l-.023.1a20 20 0 0 1 -24.291 14.455 20 20 0 0 1 -14.486 -24.272 20 20 0 0 1 18.912 -15.111z"></path>
  <g style="fill:#f3f3f3" transform="translate(727.14 1128.6)">
   <path style="fill:#f3f3f3" d="m-1470.4-1123.7q0 .8753-.7002 1.5756-.5252.5252-1.4006.5252h-36.589q-.8753 0-.8753.8753v27.66q0 .8753.8753.8753h21.008q.8753 0 1.4005.7003.7003.5252.7003 1.4005v16.981q0 .8753-.7003 1.5756-.5252.5251-1.4005.5251h-21.008q-.8753 0-.8753.8754v27.835q0 .8753.8753.8753h36.589q.8754 0 1.4006.7003.7002.5252.7002 1.4005v16.981q0 .8753-.7002 1.5756-.5252.5252-1.4006.5252h-60.048q-.8753 0-1.5755-.5252-.5252-.7003-.5252-1.5756v-118.34q0-.8753.5252-1.4005.7002-.7002 1.5755-.7002h60.048q.8754 0 1.4006.7002.7002.5252.7002 1.4005v16.981z"></path>
   <path style="fill:#f3f3f3" d="m-1434.1-1020.2q-1.9257 0-2.2758-1.9258l-25.034-118.34-.1751-.7003q0-1.5755 1.9258-1.5755h22.583q2.1008 0 2.2759 1.9257l12.08 77.029q.1751.7003.5252.7003t.5252-.7003l11.729-77.029q.1751-1.9257 2.2758-1.9257h21.883q2.2759 0 1.7507 2.2758l-25.21 118.34q-.3501 1.9258-2.2758 1.9258h-22.584z"></path>
   <path style="fill:#f3f3f3" d="m-1308-1123.7q0 .8753-.7003 1.5756-.5252.5252-1.4005.5252h-36.589q-.8753 0-.8753.8753v27.66q0 .8753.8753.8753h21.008q.8753 0 1.4005.7003.7003.5252.7003 1.4005v16.981q0 .8753-.7003 1.5756-.5252.5251-1.4005.5251h-21.008q-.8753 0-.8753.8754v27.835q0 .8753.8753.8753h36.589q.8753 0 1.4005.7003.7003.5252.7003 1.4005v16.981q0 .8753-.7003 1.5756-.5252.5252-1.4005.5252h-60.048q-.8753 0-1.5756-.5252-.5252-.7003-.5252-1.5756v-118.34q0-.8753.5252-1.4005.7003-.7002 1.5756-.7002h60.048q.8753 0 1.4005.7002.7003.5252.7003 1.4005v16.981z"></path>
   <path style="fill:#f3f3f3" d="m-1247-1020.2q-1.9257 0-2.4509-1.7507l-13.48-48.318q-.3502-.7003-.8753-.7003h-5.9523q-.8753 0-.8753.8754v47.793q0 .8753-.7003 1.5756-.5252.5252-1.4005.5252h-20.483q-.8753 0-1.5756-.5252-.5252-.7003-.5252-1.5756v-118.34q0-.8753.5252-1.4005.7003-.7002 1.5756-.7002h35.363q9.6286 0 17.156 4.7267 7.5278 4.5517 11.554 12.955 4.2016 8.4031 4.2016 19.257 0 10.329-4.0265 18.207-3.8514 7.878-10.854 12.255-.3501.1751-.5252.5252-.175.1751 0 .5252l16.106 51.644.175.7002q0 1.7507-1.9257 1.7507h-21.008zm-22.758-101.36q-.8753 0-.8753.8753v29.936q0 .8754.8753.8754h7.878q5.427 0 8.7533-4.2016 3.5013-4.3767 3.5013-11.554 0-7.3528-3.5013-11.554-3.3263-4.3766-8.7533-4.3766h-7.878z"></path>
   <path style="fill:#f3f3f3" d="m-1193.9-1020.4q-.8753 0-1.5755-.5252-.5252-.7003-.5252-1.5756v-45.517l-.1751-1.0504-24.509-71.252q-.1751-.3502-.1751-.8754 0-1.5755 1.9258-1.5755h21.533q1.9258 0 2.4509 1.7506l10.854 41.841q.1751.5252.5252.5252t.5252-.5252l10.854-41.841q.5252-1.7506 2.4509-1.7506h21.533q1.0504 0 1.5756.7002.5252.5252.175 1.7507l-24.684 71.252-.1751 1.0504v45.517q0 .8753-.7003 1.5756-.5252.5252-1.4005.5252h-20.483z"></path>
   <path style="fill:#f3f3f3" d="m-1534.1-888.85q-.7415 0-1.3347-.44488-.4448-.59316-.4448-1.3346v-100.24q0-.74145.4448-1.1863.5932-.59317 1.3347-.59317h17.35q.7414 0 1.1863.59317.5932.44487.5932 1.1863v83.339q0 .74145.7414.74145h31.141q.7415 0 1.1863.59317.5932.44487.5932 1.1863v14.384q0 .74145-.5932 1.3346-.4448.44488-1.1863.44488h-51.012z"></path>
   <path style="fill:#f3f3f3" d="m-1426.2-888.85q-1.7795 0-1.9278-1.6312l-2.3727-14.236q0-.74145-.8897-.74145h-18.833q-.8897 0-.8897.74145l-2.3727 14.236q-.1483 1.6312-1.9277 1.6312h-17.35q-1.9278 0-1.4829-1.9278l21.799-100.24q.2966-1.6312 1.9278-1.6312h20.019q1.6312 0 1.9278 1.6312l21.65 100.24.1483.59316q0 1.3346-1.6312 1.3346h-17.795zm-21.947-33.514q0 .74146.5932.74146h13.346q.7415 0 .5932-.74146l-6.9697-40.483q-.1482-.44488-.4448-.44488t-.4449.44488l-6.6731 40.483z"></path>
   <path style="fill:#f3f3f3" d="m-1386.8-889q-.7415 0-1.3346-.44488-.4449-.59316-.4449-1.3346v-38.556l-.1483-.88974-20.761-60.354q-.1483-.29659-.1483-.74146 0-1.3346 1.6312-1.3346h18.24q1.6312 0 2.076 1.4829l9.1941 35.442q.1483.44487.4449.44487.2965 0 .4448-.44487l9.1941-35.442q.4448-1.4829 2.076-1.4829h18.24q.8898 0 1.3346.59317.4449.44487.1483 1.4829l-20.909 60.354-.1483.88974v38.556q0 .74145-.5932 1.3346-.4448.44488-1.1863.44488h-17.35z"></path>
   <path style="fill:#f3f3f3" d="m-1311.3-887.66q-13.643 0-21.799-8.0077t-8.156-21.354v-47.453q0-13.346 8.156-21.354 8.156-8.0077 21.799-8.0077t21.799 8.0077q8.3043 8.0077 8.3043 21.354v47.453q0 13.346-8.3043 21.354-8.156 8.0077-21.799 8.0077zm0-17.943q4.1522 0 6.6731-2.8175 2.521-2.9658 2.521-7.7111v-49.233q0-4.7453-2.521-7.5628-2.5209-2.9658-6.6731-2.9658-4.1521 0-6.6731 2.9658-2.3726 2.8175-2.3726 7.5628v49.233q0 4.7453 2.3726 7.7111 2.521 2.8175 6.6731 2.8175z"></path>
   <path style="fill:#f3f3f3" d="m-1240.6-887.66q-13.346 0-21.502-8.3043-8.0077-8.4526-8.0077-22.392v-72.514q0-.74145.4449-1.1863.5931-.59317 1.3346-.59317h17.35q.7415 0 1.1863.59317.5932.44487.5932 1.1863v74.59q0 4.7453 2.3727 7.7111 2.3726 2.9658 6.2282 2.9658 3.8555 0 6.0799-2.9658 2.3727-2.9658 2.3727-7.7111v-74.59q0-.74145.4448-1.1863.5932-.59317 1.3346-.59317h17.35q.7414 0 1.1863.59317.5932.44487.5932 1.1863v72.514q0 13.939-8.156 22.392-8.0077 8.3043-21.206 8.3043z"></path>
   <path style="fill:#f3f3f3" d="m-1141.2-992.65q.7415 0 1.1864.59317.5931.44487.5931 1.1863v14.384q0 .74145-.5931 1.3346-.4449.44488-1.1864.44488h-18.536q-.7415 0-.7415.74145v83.339q0 .74145-.5931 1.3346-.4449.44488-1.1864.44488h-17.35q-.7415 0-1.3346-.44488-.4449-.59316-.4449-1.3346v-83.339q0-.74145-.7415-.74145h-17.795q-.7414 0-1.3346-.44488-.4448-.59316-.4448-1.3346v-14.384q0-.74145.4448-1.1863.5932-.59317 1.3346-.59317h58.723z"></path>
  </g>
  <path style="stroke:#f3f3f3;stroke-width:10;fill:none" d="m-895.71 300.93h560"></path>
  <path style="stroke:#f3f3f3;stroke-width:10;fill:none" d="m-895.71 320.93h560"></path>
  <path style="stroke:#f3f3f3;stroke-width:10;fill:none" d="m-895.71 340.93h560"></path>
  <path style="stroke:#f3f3f3;stroke-width:10;fill:none" d="m-895.71 400.93h560"></path>
  <path style="stroke:#f3f3f3;stroke-width:10;fill:none" d="m-895.71 420.93h560"></path>
  <path style="stroke:#f3f3f3;stroke-width:10;fill:none" d="m-895.71 440.93h560"></path>
 </g>
</svg>