<svg width="864" height="949.3" viewBox="0 0 810 890" xmlns="http://www.w3.org/2000/svg"><path fill="none" stroke="currentColor" stroke-linecap="round" stroke-linejoin="round" stroke-width="10" d="M11.5 17.2h787.1V877H11.5z"/><path d="M58.4 475h90v30l60-60-60-60v30h-90zM756.5 415h-90v-30l-60 60 60 60v-30h90z" fill="none" stroke="currentColor" stroke-width="10"/><path d="M309.3 378.3c-4.3 0-8.6.3-12.8 1-2.7.5-5.4 1.3-8 2.2a67.8 67.8 0 0 0-32.9 21.8 61.2 61.2 0 0 0-14.9 28.3c-1 4-1 8.3-1 12.5 0 4.4 0 8.9.5 13.3a69 69 0 0 0 43.9 51.9 68.1 68.1 0 0 0 25.9 4.9 68.5 68.5 0 0 0 33-6.8c4.1-2 8-4.2 11.7-6.8 2.5-1.8 4.7-4 7-6C372 485.6 382 476 392 466.5c.4-.4.2-1.1-.2-1.4L385 458l-25 23.4c-4.4 4-8.7 7.8-13.3 11.4a49 49 0 0 1-12.5 6.7 62.8 62.8 0 0 1-31.7 3.5l-1.1-.2a66.7 66.7 0 0 1-24-9 65.8 65.8 0 0 1-21.6-25c-1-1.9-1.7-3.8-2.4-5.8l-.5-1.5a47 47 0 0 1-2-13v-2-4.2a49 49 0 0 1 1.1-8.4l.3-1.2a57.2 57.2 0 0 1 17-28.1 60.9 60.9 0 0 1 47.3-15.7 69.5 69.5 0 0 1 28.5 9.2l4.4 3 5 4.6 19 17.9 50.2 47.5a2408 2408 0 0 0 26.1 24.2c1.7 1.5 3.3 3 5.1 4.4a79.5 79.5 0 0 0 26.1 12.4c3.5.9 7.1 1.3 10.7 1.6 6 .4 12 .4 18-.2a75.3 75.3 0 0 0 40.2-18.7 67.6 67.6 0 0 0 21.7-50.2c-.1-3.6-.7-7.2-1.3-10.8-1.6-8.7-5-17-10-24.4-6-9-14.2-16.3-23.5-21.5a85.3 85.3 0 0 0-21-8.4c-2.6-.7-5.5-1-8.3-1-4.6-.2-9.3-.2-14-.1a49 49 0 0 0-17 3c-6.4 2.2-12.6 5-18.3 8.7a39.4 39.4 0 0 0-5.3 4c-9.1 8-17.9 16.3-26.6 24.6l-8.2 7.7 7.8 7.8 23.3-22.2c4.6-4.2 9.3-8.4 14.2-12.2 3.4-2.4 7-4.6 10.8-6.2 3.4-1.4 6.9-2.5 10.4-3.5a37 37 0 0 1 5.2-.8c3.2-.2 6.4-.2 9.7-.2 3.5 0 7 0 10.7.2 2.2.2 4.4.6 6.5 1.4l5.3 2a61.2 61.2 0 0 1 34 32.5 58 58 0 0 1 2.7 32.2 59 59 0 0 1-44 44.5 34.5 34.5 0 0 1-4.9 1c-3.6.3-7.3.3-11 .3a183.1 183.1 0 0 1-9.5-.3 35.3 35.3 0 0 1-5-1l-1.3-.3a72.3 72.3 0 0 1-17.4-7.8c-2.2-1.5-4-3.2-6-5-5.1-4.3-10-8.9-15-13.4-19.1-17.6-37.9-35.7-56.8-53.5l-26.1-24.3-5.3-4.5a80.2 80.2 0 0 0-26.4-13 67 67 0 0 0-11.4-1.6c-3-.2-6.2-.3-9.3-.3z"/></svg>